# xmcd
#
# Track frame offsets: 
#        150
#        8131
#        26883
#        50184
#        70469
#        88844
#        110854
#        129853
#        147462
#        171796
#        190313
#        220103
#        238295
#        256092
#        271781
#        295049
#        326394
#
# Disc length: 4774 seconds
#
# Revision: 3
# Processed by: cddbd v1.5.2PL0 Copyright (c) Steve Scherf et al.
# Submitted via: ExactAudioCopy v1.0b1
#
DISCID=0512a411
DTITLE=Bootsy Collins - Tha Funk Capital Of The World
DYEAR=2011
DGENRE=Funk
TTITLE0=Spreading Hope Like Dope (Intro)
TTITLE1=Hip Hop @ Funk U (Feat. Ice Cube, Snoop Dogg, Chuck D and Swavay
TTITLE1=)
TTITLE2=Mirrors Tell Lies (Feat. Jimi Hendrix)
TTITLE3=JB- Still The Man (Feat. Rev. Al Sharpton)
TTITLE4=Freedumb [When-Love-Becomes-A-Threat] (Feat. Dr. Cornel West)
TTITLE5=After These Messages (Feat. Samel L. Jackson)
TTITLE6=Kool Whip (Feat. Phil Ade and CandiSweetz)
TTITLE7=The Real Deal (Feat. Sheila E., CandiSweetz and Mike Phillips)
TTITLE8=Don`t Take My Funk  (Feat. Catfish Collins and Bobby Womack)
TTITLE9=If Looks Could Kill (Feat. Bela Fleck, ZionPlanet-10 and Dennis 
TTITLE9=Chambers)
TTITLE10=Minds Under Construction (Feat.  Buckethead and [Z-Class])
TTITLE11=Siento Bombo (Feat. Olvido Ruiz and Ouiwey)
TTITLE12=The Jazz Greats [A Tribute To Jazz]  (Feat. George Duke and Ron
TTITLE12=Carter)
TTITLE13=Garry Shider Tribute  (Feat. George Clinton and Linda Shider)
TTITLE14=Stars Have No Names [They Just Shine] (Feat.  Nick Arnold and C
TTITLE14=hrissy Dunn)
TTITLE15=Chocolate Caramel Angel (Feat.  Faith Daniels, Ronni Racket &
TTITLE15=Casper)
TTITLE16=Yummy, I Got The Munchies (Feat.  Musiq Soulchild, Razzberry 
TTITLE16=& Tom Joyner)
EXTD=
EXTT0=
EXTT1=
EXTT2=
EXTT3=
EXTT4=
EXTT5=
EXTT6=
EXTT7=
EXTT8=
EXTT9=
EXTT10=
EXTT11=
EXTT12=
EXTT13=
EXTT14=
EXTT15=
EXTT16=
PLAYORDER=
